<?xml version="1.0" encoding="UTF-8"?>
<svg id="Capa_1" xmlns="http://www.w3.org/2000/svg" viewBox="0 0 596 596">
  <defs>
    <style>
      .cls-1 {
        fill: #fefdfd;
      }

      .cls-2 {
        fill: #fefdfc;
      }

      .cls-3 {
        fill: #fefefe;
      }

      .cls-4 {
        fill: #fefcfb;
      }
    </style>
  </defs>
  <path class="cls-3" d="M571.22,231.13c-2.58-9.69-8.87-15.31-18.71-16.96-2.95-.5-5.93-.81-8.91-1.19-38.46-4.87-76.91-9.76-115.37-14.58-24.49-3.07-43.07-15.18-55.01-36.74-9.34-16.87-17.94-34.13-26.86-51.23-10.38-19.9-20.68-39.83-31.15-59.68-6.23-11.81-18.31-16.27-29.88-11.4-6.8,2.86-10.33,8.45-13.34,14.79-17.27,36.32-34.51,72.66-52.07,108.84-10.32,21.25-27.38,34.51-50.51,39.25-14.16,2.91-28.54,4.78-42.82,7.08-27.75,4.45-55.51,8.85-83.26,13.31-8.89,1.43-16.38,5.88-18.42,14.69-2.09,8.99-2.05,18.24,6.18,25.69,22.08,20,44.06,40.13,65.53,60.78,32.8,31.55,47.28,70.42,42.07,115.61-3.51,30.38-9.06,60.53-13.94,90.74-1.57,9.77.61,17.97,8.65,23.89,8.38,6.17,17.24,5.8,26.25.91,45.74-24.82,91.53-49.54,137.23-74.42,3.43-1.87,6.13-1.93,9.64-.17,29.25,14.72,58.6,29.26,87.92,43.84,17.71,8.81,35.41,17.64,53.14,26.4,8.52,4.21,16.9,3.72,24.45-2.05,7.71-5.89,10.29-13.93,8.44-23.5-7.12-36.9-14.02-73.84-21.3-110.71-6.21-31.44,2.06-58.07,24.92-80.54,26.84-26.39,53.37-53.1,80-79.7,3.65-3.64,6.43-7.7,7.83-12.38.68-2.28,0-9.55-.73-10.56ZM548.74,241c-26.87,26.84-53.87,53.55-80.64,80.5-26.69,26.87-35.76,59.1-28.59,96.14,7.11,36.73,14.09,73.49,21.17,110.23.33,1.73.6,3.29-1,4.53-1.94,1.51-3.48-.01-5.02-.78-33.95-16.84-67.89-33.72-101.83-50.6-12.51-6.22-25.13-12.22-37.47-18.76-9.57-5.08-18.37-4.72-27.88.49-45.36,24.83-90.89,49.33-136.37,73.93-1.7.92-3.4,2.44-5.51,1.11-1.25-.79-1.48-2.13-1.19-3.54,2.4-15.45,4.96-30.88,7.17-46.36,2.87-20.07,7.47-39.92,8.09-60.29.95-31.47-7.24-60.46-23.55-87.33-11.15-18.37-26.92-32.46-42.43-46.83-15.75-14.59-31.52-29.16-47.24-43.79-1.51-1.4-3.81-2.74-2.91-5.31.82-2.34,3.27-1.88,5.17-2.19,40.39-6.56,80.8-12.97,121.16-19.72,32.07-5.37,54.95-23.26,69-52.41,17.33-35.93,34.43-71.97,51.67-107.95.89-1.86,1.32-4.53,4.09-4.45,2.45.07,2.82,2.53,3.71,4.24,18.71,35.81,37.2,71.73,56.15,107.41,15.4,29,39.77,45.17,72.41,49.15,39.98,4.87,79.92,10,119.88,15.03,1.8.23,3.92.25,4.71,2.22,1.05,2.61-1.31,3.88-2.75,5.32Z"/>
  <path class="cls-3" d="M318.65,409.45c.11,6.86-2.47,18.71-5.86,30.4-1.63,5.64-6.88,7.95-12.81,5.95-6.13-2.07-8.51-6.92-6.42-12.92,6.82-19.59,6.8-39.14-.52-58.58-1.05-2.78-2.6-5.37-3.96-8.03-2.56-5.02-.45-10.49,5.11-13.23,5.43-2.67,10.36-1.11,13.02,3.94,7.77,14.73,11.22,30.5,11.43,52.48Z"/>
  <path class="cls-4" d="M87.03,255.41c-.06,4.25-3.79,7.81-8.12,7.74-4.49-.07-7.78-3.5-7.7-8.03.08-4.39,3.64-7.86,8-7.79,4.3.07,7.88,3.77,7.82,8.08Z"/>
  <path class="cls-2" d="M294.99,165.56c4.29.12,7.72,3.78,7.65,8.15-.07,4.48-3.46,7.73-7.98,7.64-4.46-.1-7.77-3.53-7.68-7.99.09-4.37,3.74-7.92,8-7.8Z"/>
  <path class="cls-2" d="M479.8,262.89c.06,4.32-3.43,7.86-7.84,7.92-4.53.07-7.95-3.21-7.99-7.66-.04-4.45,3.32-7.9,7.74-7.97,4.39-.07,8.03,3.4,8.09,7.7Z"/>
  <path class="cls-4" d="M349.02,296.31c4.35.05,7.95,3.67,7.91,7.94-.04,4.19-3.86,7.91-8.08,7.87-4.37-.04-7.75-3.57-7.72-8.06.03-4.55,3.35-7.81,7.89-7.76Z"/>
  <path class="cls-2" d="M199.66,470.58c.14,4.4-3.24,8.01-7.61,8.14-4.41.13-7.92-3.2-8.04-7.63-.12-4.63,2.96-7.9,7.53-8,4.6-.1,7.98,3.02,8.12,7.49Z"/>
  <path class="cls-2" d="M516.57,252.25c.09,4.58-3.12,7.98-7.59,8.07-4.44.08-7.94-3.27-8.04-7.7-.1-4.42,3.29-8.02,7.66-8.12,4.38-.11,7.89,3.3,7.97,7.76Z"/>
  <path class="cls-2" d="M178.34,502.35c.06,4.56-3.15,7.95-7.6,8.02-4.43.06-7.97-3.33-8.04-7.7-.07-4.44,3.3-7.92,7.73-8,4.56-.08,7.84,3.11,7.91,7.67Z"/>
  <path class="cls-2" d="M302.63,98.37c-.09,4.46-3.61,7.93-7.94,7.82-4.39-.11-7.77-3.67-7.7-8.08.07-4.45,3.53-7.81,7.96-7.73,4.49.08,7.76,3.49,7.67,7.99Z"/>
  <path class="cls-2" d="M300.58,134.36c0,4.23-3.74,8-7.91,7.96-4.37-.04-7.7-3.5-7.69-7.99,0-4.46,3.42-7.97,7.72-7.95,4.27.03,7.88,3.67,7.88,7.97Z"/>
  <path class="cls-2" d="M305.96,271.16c-.15,4.28-3.87,7.76-8.18,7.63-4.35-.13-7.77-3.75-7.64-8.1.13-4.42,3.62-7.66,8.1-7.54,4.37.12,7.86,3.74,7.71,8.01Z"/>
  <path class="cls-2" d="M168.18,279c.08,4.53-3.19,8.03-7.61,8.13-4.24.09-8.04-3.53-8.16-7.78-.12-4.27,3.46-7.95,7.81-8.03,4.54-.08,7.88,3.14,7.96,7.69Z"/>
  <path class="cls-2" d="M259.63,304.16c0,4.32-3.6,7.98-7.86,7.97-4.31,0-7.77-3.56-7.77-7.97,0-4.49,3.33-7.86,7.77-7.85,4.43.01,7.86,3.43,7.86,7.85Z"/>
  <path class="cls-2" d="M299.39,309.83c4.33.08,7.81,3.7,7.74,8.04-.07,4.34-3.6,7.66-8.06,7.58-4.56-.08-7.88-3.46-7.76-7.88.11-4.33,3.76-7.82,8.07-7.74Z"/>
  <path class="cls-2" d="M329.79,365.76c-4.32-.26-7.77-4.13-7.45-8.34.34-4.35,4-7.5,8.46-7.27,4.41.23,7.57,3.81,7.32,8.3-.25,4.41-3.86,7.59-8.33,7.32Z"/>
  <path class="cls-2" d="M223,435.78c-.1,4.35-3.67,7.72-8.1,7.63-4.44-.09-7.85-3.61-7.73-7.99.12-4.34,3.75-7.76,8.1-7.66,4.46.11,7.82,3.6,7.73,8.01Z"/>
  <path class="cls-2" d="M419.56,470.77c.07,4.4-3.39,7.93-7.79,7.94-4.46.02-7.8-3.3-7.84-7.8-.04-4.66,3.01-7.78,7.67-7.83,4.5-.05,7.89,3.23,7.96,7.69Z"/>
  <path class="cls-1" d="M440.25,494.83c-.04,4.54-3.35,7.83-7.84,7.79-4.42-.04-7.84-3.54-7.8-7.96.04-4.38,3.59-7.87,7.97-7.82,4.46.05,7.71,3.43,7.67,7.99Z"/>
  <path class="cls-2" d="M395.94,440.95c-.03,4.34-3.59,7.82-7.98,7.8-4.35-.02-7.88-3.59-7.84-7.93.04-4.4,3.49-7.74,7.98-7.71,4.46.03,7.87,3.44,7.84,7.84Z"/>
  <path class="cls-2" d="M440.39,278.48c-4.56.05-8-3.17-8.1-7.57-.09-4.23,3.53-7.91,7.85-7.98,4.39-.07,7.89,3.33,7.95,7.72.06,4.56-3.1,7.78-7.7,7.83Z"/>
  <path class="cls-2" d="M265.11,345.01c4.44-.05,7.97,3.35,8.02,7.7.04,4.3-3.49,7.86-7.86,7.93-4.4.06-7.9-3.35-7.95-7.76-.05-4.47,3.26-7.82,7.78-7.87Z"/>
  <path class="cls-1" d="M118.57,258.16c4.58-.08,7.95,3.09,8.05,7.55.09,4.41-3.28,7.94-7.69,8.04-4.47.1-7.82-3.17-7.9-7.69-.08-4.74,2.86-7.81,7.54-7.89Z"/>
</svg>