<?xml version="1.0" encoding="UTF-8"?>
<svg id="Capa_1" xmlns="http://www.w3.org/2000/svg" viewBox="0 0 596 596">
    <defs>
        <style>
        .cls-1 {
            fill: #fefefe;
        }
        </style>
    </defs>
    <path class="cls-1" d="M516.85,238.79c0-1.84.11-3.67-1.26-5.17-5.07-5.55-6.01-12.2-5.47-19.4.32-4.3.06-8.64.05-12.96,0-1.48-.02-2.83-1.22-4.11-9.32-9.97-20.36-14.1-33.74-9.93-2.3.72-4.08.45-6.15-.4-8.14-3.33-16.24-3.06-24.08.93-1.93.98-3.41,1.19-5.54.32-8.54-3.48-16.88-2.66-24.85,1.99-1.08.63-1.93,1.73-3.56,1.03-8-3.44-15.84-2.41-23.77,1.75,0-13.72-.21-26.84.1-39.94.13-5.25-.8-9.83-4.24-13.77-3.24-3.73-4.15-7.97-3.94-12.86.33-7.8.08-15.63.09-23.44,0-1.81-.06-3.38-1.5-4.98-11.6-12.95-25.65-16.74-41.83-10.96-1.83.65-3.24.68-5.09-.23-11.09-5.47-22.11-5.21-32.78,1.17-1.77,1.06-3.07,1.17-4.98.28-11.46-5.34-22.52-4.54-33.02,2.63-1.24.85-2.22,1.56-4.01.79-14.41-6.18-26.43-2.48-36.77,8.84-2.41,2.64-3.61,5.09-3.6,8.73.14,33.92.07,67.84.09,101.76,0,6.33-.3,12.66.96,19.8-3.62-3.61-4.85-6.9-4.68-11.02.26-6.31.06-12.63.06-18.95,0-1.67-.08-3.14-1.4-4.55-9.47-10.19-20.69-14.11-34.22-9.74-1.96.63-3.45.3-5.2-.42-8.29-3.43-16.54-3.29-24.54.84-1.95,1.01-3.46,1.08-5.55.24-8.37-3.36-16.59-2.71-24.38,1.88-1.85,1.09-3.34,1.42-5.5.68-10.29-3.53-19.07-.93-26.99,6.43-3.98,3.7-5.47,7.54-5.41,12.97.27,27.6.28,55.2.05,82.8-.1,12.03,3.56,22.53,11.12,31.7,2.14,2.6,3,5.18,2.99,8.54-.09,53.87-.06,107.74-.07,161.62,0,2.99-.28,6-.08,8.97.37,5.42,4.53,9.4,9.68,9.58,5.41.19,9.81-3.65,10.34-9.33.26-2.8.03-5.64.03-8.46,0-56.7-.03-113.4.07-170.09,0-4.04-.73-7.1-4.03-9.91-5.44-4.64-9.49-10.7-9.8-17.94-.54-12.61-.17-25.27-.23-37.9,0-1.82.56-2.64,2.54-2.76,7.13-.45,14.38-4.18,21.25,1.03.49.37,1.29.59,1.9.51,8.82-1.13,14.2,3.4,18.37,10.55.98,1.67,1.64,2.28.17,3.96-6.39,7.31-9.99,15.92-11.67,25.46-1.31,7.44,1.71,13.39,7.72,14.3,6.8,1.04,11.56-3.11,12.32-11.04.63-6.58,3.3-12.2,7.87-16.79,5.4-5.42,11.96-8.9,19.58-10.15,8.17-1.33,12.1-6.17,10.59-13.17-1.25-5.77-7.12-8.58-14.31-6.78-4.71,1.18-9.42,1.82-14.29,1.12-3.38-.49-5.63-1.71-5.35-5.68.29-4.11,3.35-3.55,5.86-3.56,11.14-.04,22.29.21,33.42.03,3.34-.05,3.76,1.24,3.71,4.05-.15,8.48.06,16.96-.1,25.44-.1,5.29.71,10.59-.69,15.87-3.07,11.55-10.08,20.47-18.65,28.3-2.92,2.67-4.28,5.35-4.17,9.42.29,10.63.14,21.28.07,31.92-.3,46.86-.67,93.72-.92,140.58-.04,6.89,4.05,11.07,10.12,11.02,5.97-.05,9.98-4.39,10.12-11.2.12-6.3,0-12.61.03-18.91.22-47.71.5-95.42.57-143.13,0-4.82,1.38-8.28,4.65-11.89,12.46-13.73,20.11-29.35,19.03-48.66-.72-12.81-.14-25.69-.14-38.54,3.64,6.23,7.01,12.31,11.78,17.38,2.63,2.79,3.26,5.74,3.25,9.41-.09,67.51-.07,135.01-.04,202.52,0,3.01-.33,5.76-1.69,8.6-2.78,5.81-.98,12.32,3.87,16.14,4.42,3.47,10.73,3.51,15.29.1,4.8-3.6,6.78-10.35,4.06-16.1-1.37-2.88-1.6-5.65-1.6-8.63.01-70.67-.01-141.33.07-212,0-3.54-.81-6.01-3.61-8.54-7.99-7.2-13.88-15.97-14.14-27.08-.39-16.45-.06-32.92-.14-49.38-.01-2.49.49-3.62,3.32-3.34,5.74.57,11.27-.5,16.41-3.18,1.33-.69,2.33-.73,3.61.16,7.92,5.47,16.94,6.47,26.21,5.93,2.27-.13,3.28.39,3.94,2.51,1.63,5.23,4.64,9.62,9.18,12.67,2.44,1.64,1.98,2.53.25,4.35-6.98,7.34-12,15.85-14.57,25.71-.43,1.65-1.43,2.92-2.38,4.29-3.76,5.38-3.39,12.41.76,17.04,3.87,4.33,9.93,5.57,14.99,3.06,5.49-2.72,8.52-9.15,6.71-15.66-.79-2.85-.38-5.18.62-7.67,4.76-11.88,13.87-19.16,25.36-23.92,2.65-1.1,5.13-1.64,8.15-.83,5.52,1.48,11.3-1.44,13.93-6.33,2.58-4.81,1.59-11.45-2.26-15.24-4.15-4.08-10.91-5.32-15.55-1.79-6.51,4.96-13.41,3.85-20.4,2.52-4.53-.86-6.59-4.08-6.55-8.69.06-5.81,2.92-8.04,10.65-7.98,14.96.12,29.92.44,44.88.41,3.47,0,4.46.91,4.43,4.42-.14,15.96.03,31.92.06,47.88,0,3.68-.76,7.24-1.85,10.76-4.58,14.8-14.13,26.16-25.3,36.34-2.06,1.88-2.83,3.72-2.82,6.42.04,18.45-.02,36.91-.12,55.36-.26,46.71-.55,93.42-.84,140.13-.01,1.83.5,4.05-.34,5.41-4.51,7.29-2.04,15.24-2.6,22.88-.25,3.32.94,6.37,3.68,8.32,5.07,3.62,10.86,3.21,16.21,1.23,4.76-1.76,5.88-6.23,5.74-11.13-.22-8.02-2.04-16.07-2.28-23.8-.95-30.38.06-60.81.22-91.23.18-32.75.23-65.5.36-98.26,0-1.77-.46-3.67,1.12-5.15,6.92-6.44,12.61-13.91,18.66-21.4,0,15.96.27,31.92-.09,47.87-.28,12.62,3.78,23.44,11.72,32.99,1.55,1.87,2.4,3.67,2.4,6.21-.11,56.7-.11,113.39-.17,170.09,0,6.76,3.74,11.35,9.7,11.53,6.08.19,10.36-4.43,10.37-11.39.02-59.69,0-119.38.06-179.07,0-2.53-.68-4.19-2.67-5.91-5.94-5.11-10.81-11.33-11.17-19.35-.56-12.61-.15-25.27-.2-37.9,0-1.75.43-2.52,2.44-2.83,7.35-1.11,14.69-3.41,21.72,1.19.4.26.97.44,1.43.39,9.01-1.11,14.47,3.64,18.76,10.86.96,1.61,1.19,2.16-.07,3.55-6.64,7.38-10.05,16.28-11.96,25.88-1.37,6.86,1.96,12.99,7.79,13.98,6.47,1.1,10.96-2.55,12.23-9.96,2.74-16.01,12.38-25.5,28.56-28.11,7.04-1.14,10.97-6.09,9.88-12.45-1.03-5.98-6.95-9.21-13.88-7.52-5.03,1.23-10.07,2.02-15.28,1.18-3.28-.53-5.05-1.92-4.91-5.54.15-3.81,2.78-3.64,5.25-3.65,11.47-.01,22.95.19,34.42.05,3.28-.04,3.32,1.6,3.31,4-.07,10.47-.31,20.96.06,31.42.28,7.98-1.92,15.07-5.87,21.77-4.01,6.78-9.12,12.66-15.01,17.86-1.63,1.44-2.88,2.82-2.89,5.38-.24,58.18-.62,116.35-.9,174.53-.04,7.33,3.86,11.62,10.08,11.63,6.25,0,10.09-4.21,10.16-11.56.19-19.09.28-38.18.36-57.27.13-34.58.33-69.16.23-103.74-.01-5.16,1.39-8.88,4.92-12.74,10.77-11.78,18.53-25.28,18.89-41.73.34-15.79-.03-31.59-.07-47.38ZM105.38,232.4c.02,2.68-1.68,3.34-3.9,3.45-2.47.11-2.5-1.57-2.5-3.34.02-6.81.07-13.63-.02-20.44-.04-2.8,1.43-4.01,3.91-4.05,2.71-.05,2.5,2.1,2.51,3.94.01,3.32,0,6.65,0,9.97h-.02c0,3.49-.02,6.98,0,10.47ZM134.88,232.91c-.28,2.75-.56,5.53-4.63,5.07-3.58-.4-5.23-1.62-5.05-5.59.33-7.12.23-14.27.04-21.4-.11-4.07,1.85-5.78,5.58-6,4.05-.25,4.41,2.58,4.45,5.55.05,3.48.01,6.97.01,10.45.11,0,0,7.98-.39,11.92ZM159.11,225.74c-2.77-.12-3.68-.63-3.65-3.47.05-4.94-.33-9.88-.54-14.83-.14-3.32,2.2-3.73,4.61-3.76,2.29-.03,4.91-.13,5,3.27.08,2.81.02,5.61.02,8.42h.02c0,1.65-.22,3.34.04,4.95.75,4.55-1.26,5.6-5.49,5.42ZM188.19,225.93c-3.87,0-3.76-1.9-3.71-4.56.09-4.45.01-8.9.04-13.35,0-1.59-.39-3.6,2.26-3.34,2.21.22,5-.13,5.31,3.1.25,2.61.05,5.27.05,7.91h.06c0,1.81-.11,3.64.02,5.44.22,2.97-.04,4.81-4.03,4.8ZM249.07,143.22c-.33,3.95-3.01,5.94-8.01,5.88-3.85-.04-5.75-1.45-5.41-5.71.36-4.45.08-8.96.08-13.44,0-4.82-.05-9.63.01-14.45.05-4.33,3.17-7.08,7.78-6.95,4.49.12,5.83,2.46,5.6,6.81-.5,9.27.73,18.57-.06,27.86ZM282.6,151.41c-3.76,1.78-8.15.38-11.87-1.76-1.86-1.07-1.73-3.04-1.73-4.89.02-5.31,0-10.62,0-15.93,0-5.31-.06-10.62.02-15.93.07-4.79,3.76-7.95,9.33-8.14,5.63-.2,8.17,1.74,8.38,7.05.39,10.11.54,20.24.72,30.36.07,3.94-1.69,7.75-4.86,9.25ZM319.96,136.07c-3.28-.38-6.65-.31-9.89.53-2.37.61-3.51-.41-3.47-2.49.08-4.3.23-12.91,0-12.91,0-3.81.03-7.62,0-11.42-.04-4.38,2.73-6.69,8.34-6.9,5.79-.21,8.91,2.02,8.95,6.53.05,7.63-.1,15.26.07,22.88.07,3.07-.84,4.13-4,3.77ZM355.95,136.44c-.16-.02-.33-.01-.5-.02q-11.59-.41-11.59-12.3c0-1.33,0-2.66,0-3.99,0-3.99.23-7.99-.08-11.95-.22-2.69,1.04-3.46,3.21-3.9,7.56-1.52,12.35,2.31,12.35,9.92,0,6.31-.12,12.63.06,18.93.07,2.69-.91,3.63-3.44,3.3ZM399.97,236.83c-3.3.23-2.69-2.09-2.71-3.98-.04-3.14,0-6.29,0-9.43,0-3.31.16-6.63-.05-9.92-.19-3.01,1.27-4.42,3.98-4.41,2.81,0,2.19,2.39,2.2,4.09.05,6.45-.05,12.9.06,19.35.04,2.56-.66,4.11-3.47,4.31ZM426.17,238.61c-2.03-.6-2.94-1.66-2.85-3.89.16-3.96.05-7.93.04-11.9,0-3.64.14-7.28-.04-10.91-.2-4.09,2.04-5.71,5.66-5.91,3.87-.22,4.42,2.25,4.41,5.46-.02,7.1.29,14.2.28,21.3,0,5.34-2.68,7.28-7.5,5.85ZM462.65,221.26c-.02,5.06-2.38,6.72-7.45,5.48-1.66-.4-1.53-1.47-1.56-2.59-.17-5.31-.26-10.62-.49-15.93-.14-3.18,2.13-3.42,4.28-3.53,2.3-.12,4.98-.28,5.16,3.11.15,2.82.03,5.65.03,8.47h.04c0,1.66,0,3.32,0,4.98ZM486.4,226.76c-2.01.03-4.07.34-3.88-2.82.17-2.79.04-5.61.03-8.41,0-1.98-.03-3.96,0-5.94.03-1.91-.51-4.31,2.74-3.93,2.45.28,5.06.32,4.96,3.99-.13,4.78-.18,9.57.02,14.35.14,3.27-1.95,2.73-3.89,2.76Z"/>
</svg>